<svg width="24" height="24" viewBox="0 0 24 24" fill="none" xmlns="http://www.w3.org/2000/svg">
<path d="M7 9.25C6.58579 9.25 6.25 9.58579 6.25 10C6.25 10.4142 6.58579 10.75 7 10.75V9.25ZM17 10.75C17.4142 10.75 17.75 10.4142 17.75 10C17.75 9.58579 17.4142 9.25 17 9.25V10.75ZM7 13.25C6.58579 13.25 6.25 13.5858 6.25 14C6.25 14.4142 6.58579 14.75 7 14.75V13.25ZM17 14.75C17.4142 14.75 17.75 14.4142 17.75 14C17.75 13.5858 17.4142 13.25 17 13.25V14.75ZM7 17.25C6.58579 17.25 6.25 17.5858 6.25 18C6.25 18.4142 6.58579 18.75 7 18.75V17.25ZM12 18.75C12.4142 18.75 12.75 18.4142 12.75 18C12.75 17.5858 12.4142 17.25 12 17.25V18.75ZM6.46967 5.46967C6.17678 5.76257 6.17678 6.23744 6.46967 6.53033C6.76256 6.82323 7.23744 6.82323 7.53033 6.53033L6.46967 5.46967ZM10.5858 2.41422L10.0555 1.88389V1.88389L10.5858 2.41422ZM13.4142 2.41422L13.9445 1.88389V1.88389L13.4142 2.41422ZM16.4697 6.53033C16.7626 6.82323 17.2374 6.82323 17.5303 6.53033C17.8232 6.23744 17.8232 5.76257 17.5303 5.46967L16.4697 6.53033ZM6 6.75H18V5.25H6V6.75ZM21.25 10V18H22.75V10H21.25ZM18 21.25H6V22.75H18V21.25ZM2.75 18V10H1.25V18H2.75ZM6 21.25C4.20507 21.25 2.75 19.7949 2.75 18H1.25C1.25 20.6234 3.37665 22.75 6 22.75V21.25ZM21.25 18C21.25 19.7949 19.7949 21.25 18 21.25V22.75C20.6234 22.75 22.75 20.6234 22.75 18H21.25ZM18 6.75C19.7949 6.75 21.25 8.20508 21.25 10H22.75C22.75 7.37665 20.6234 5.25 18 5.25V6.75ZM6 5.25C3.37665 5.25 1.25 7.37665 1.25 10H2.75C2.75 8.20508 4.20507 6.75 6 6.75V5.25ZM7 10.75H17V9.25H7V10.75ZM7 14.75H17V13.25H7V14.75ZM7 18.75H12V17.25H7V18.75ZM7.53033 6.53033L11.1161 2.94455L10.0555 1.88389L6.46967 5.46967L7.53033 6.53033ZM12.8839 2.94455L16.4697 6.53033L17.5303 5.46967L13.9445 1.88389L12.8839 2.94455ZM11.1161 2.94455C11.6043 2.45639 12.3957 2.45639 12.8839 2.94455L13.9445 1.88389C12.8706 0.809946 11.1294 0.809943 10.0555 1.88389L11.1161 2.94455Z" fill="white"/>
</svg>
