<svg width="24" height="25" viewBox="0 0 24 25" fill="none" xmlns="http://www.w3.org/2000/svg">
<path d="M4.24252 18.0365L3.51491 18.2185L4.24252 18.0365ZM2.62125 11.5515L3.34885 11.3696L2.62125 11.5515ZM9.99998 9.06641V9.81641C10.2766 9.81641 10.5307 9.66417 10.6612 9.4203C10.7917 9.17643 10.7774 8.88052 10.624 8.65038L9.99998 9.06641ZM8.59115 6.95316L7.96711 7.36918L8.59115 6.95316ZM12 3.06641L12.6512 2.6943C12.5176 2.46062 12.2691 2.31641 12 2.31641V3.06641ZM15.8682 9.83583L15.217 10.2079V10.2079L15.8682 9.83583ZM15.5547 19.3633L15.9707 19.9873L15.9707 19.9873L15.5547 19.3633ZM14.0077 20.3946L13.5917 19.7706V19.7706L14.0077 20.3946ZM20 7.31641H18V8.81641H20V7.31641ZM15.25 10.0664V19.0664H16.75V10.0664H15.25ZM18 21.8164H20V20.3164H18V21.8164ZM22.75 19.0664V10.0664H21.25V19.0664H22.75ZM20 21.8164C21.5188 21.8164 22.75 20.5852 22.75 19.0664H21.25C21.25 19.7568 20.6903 20.3164 20 20.3164V21.8164ZM15.25 19.0664C15.25 20.5852 16.4812 21.8164 18 21.8164V20.3164C17.3096 20.3164 16.75 19.7568 16.75 19.0664H15.25ZM18 7.31641C16.4812 7.31641 15.25 8.54762 15.25 10.0664H16.75C16.75 9.37605 17.3096 8.81641 18 8.81641V7.31641ZM20 8.81641C20.6903 8.81641 21.25 9.37605 21.25 10.0664H22.75C22.75 8.54762 21.5188 7.31641 20 7.31641V8.81641ZM11.7889 20.3164H8.12309V21.8164H11.7889V20.3164ZM4.97012 17.8546L3.34885 11.3696L1.89364 11.7334L3.51491 18.2185L4.97012 17.8546ZM4.56153 9.81641H9.99998V8.31641H4.56153V9.81641ZM10.624 8.65038L9.21518 6.53713L7.96711 7.36918L9.37594 9.48243L10.624 8.65038ZM10.6713 3.81641H12V2.31641H10.6713V3.81641ZM11.3488 3.43851L15.217 10.2079L16.5194 9.46373L12.6512 2.6943L11.3488 3.43851ZM15.25 10.332V18.5312H16.75V10.332H15.25ZM15.1387 18.7392L13.5917 19.7706L14.4237 21.0186L15.9707 19.9873L15.1387 18.7392ZM15.25 18.5312C15.25 18.6148 15.2082 18.6929 15.1387 18.7392L15.9707 19.9873C16.4576 19.6627 16.75 19.1163 16.75 18.5312H15.25ZM3.34885 11.3696C3.15162 10.5806 3.74832 9.81641 4.56153 9.81641V8.31641C2.77246 8.31641 1.45973 9.99772 1.89364 11.7334L3.34885 11.3696ZM8.12309 20.3164C6.63176 20.3164 5.33182 19.3014 4.97012 17.8546L3.51491 18.2185C4.04354 20.333 5.94346 21.8164 8.12309 21.8164V20.3164ZM11.7889 21.8164C12.7266 21.8164 13.6434 21.5388 14.4237 21.0186L13.5917 19.7706C13.0578 20.1265 12.4305 20.3164 11.7889 20.3164V21.8164ZM9.21518 6.53713C8.43987 5.37416 9.27355 3.81641 10.6713 3.81641V2.31641C8.07551 2.31641 6.52724 5.20938 7.96711 7.36918L9.21518 6.53713ZM15.217 10.2079C15.2386 10.2457 15.25 10.2885 15.25 10.332H16.75C16.75 10.0274 16.6705 9.72815 16.5194 9.46373L15.217 10.2079Z" fill="white"/>
</svg>
